<?xml version="1.0" encoding="UTF-8"?>
<!DOCTYPE svg PUBLIC "-//W3C//DTD SVG 1.1//EN" "http://www.w3.org/Graphics/SVG/1.1/DTD/svg11.dtd">
<svg xmlns="http://www.w3.org/2000/svg" xmlns:xlink="http://www.w3.org/1999/xlink" version="1.1" width="442px" height="472px" viewBox="-0.5 -0.5 442 472"><defs/><g><path d="M 8 468 L 8 28" fill="none" stroke="rgb(0, 0, 0)" stroke-width="4" stroke-miterlimit="10" pointer-events="stroke"/><g fill="rgb(0, 0, 0)" font-family="Helvetica" font-size="24px"><rect fill="rgb(255, 255, 255)" stroke="none" x="10" y="-3" width="97" height="30" stroke-width="0"/><text x="9.5" y="22.5">Gateway</text></g><path d="M 368 468 L 368 28" fill="none" stroke="rgb(0, 0, 0)" stroke-width="4" stroke-miterlimit="10" pointer-events="stroke"/><g fill="rgb(0, 0, 0)" font-family="Helvetica" text-anchor="end" font-size="24px"><rect fill="rgb(255, 255, 255)" stroke="none" x="225" y="-3" width="143" height="30" stroke-width="0"/><text x="365.5" y="22.5">Steuereinheit</text></g><path d="M 8 348 L 358.14 425.81" fill="none" stroke="rgb(0, 0, 0)" stroke-width="3" stroke-miterlimit="10" pointer-events="stroke"/><path d="M 364.73 427.27 L 354.96 429.71 L 358.14 425.81 L 356.92 420.93 Z" fill="rgb(0, 0, 0)" stroke="rgb(0, 0, 0)" stroke-width="3" stroke-miterlimit="10" pointer-events="all"/><g fill="rgb(0, 0, 0)" font-family="Helvetica" text-anchor="middle" font-size="24px"><rect fill="rgb(255, 255, 255)" stroke="none" x="163" y="334" width="51" height="30" stroke-width="0"/><text x="187.34" y="358.51">ACK</text></g><path d="M 368 68 L 177.91 106.02" fill="none" stroke="rgb(0, 0, 0)" stroke-width="3" stroke-miterlimit="10" pointer-events="stroke"/><path d="M 171.29 107.34 L 179.23 101.16 L 177.91 106.02 L 181 109.99 Z" fill="rgb(0, 0, 0)" stroke="rgb(0, 0, 0)" stroke-width="3" stroke-miterlimit="10" pointer-events="all"/><g fill="rgb(0, 0, 0)" font-family="Helvetica" text-anchor="middle" font-size="24px"><rect fill="rgb(255, 255, 255)" stroke="none" x="231" y="45" width="70" height="30" stroke-width="0"/><text x="264.84" y="69.46">Status</text></g><path d="M 368 228 L 17.86 305.81" fill="none" stroke="rgb(0, 0, 0)" stroke-width="3" stroke-miterlimit="10" pointer-events="stroke"/><path d="M 11.27 307.27 L 19.08 300.93 L 17.86 305.81 L 21.04 309.71 Z" fill="rgb(0, 0, 0)" stroke="rgb(0, 0, 0)" stroke-width="3" stroke-miterlimit="10" pointer-events="all"/><g fill="rgb(0, 0, 0)" font-family="Helvetica" text-anchor="middle" font-size="24px"><rect fill="rgb(255, 255, 255)" stroke="none" x="154" y="224" width="70" height="30" stroke-width="0"/><text x="187.66" y="248.76">Status</text></g><path d="M 61.75 98.42 L 61.75 78 L 93 92.58 L 124.25 78 L 124.25 98.42 L 168 98.42 L 136.75 113 L 168 127.58 L 124.25 127.58 L 124.25 148 L 93 133.42 L 61.75 148 L 61.75 127.58 L 18 127.58 L 49.25 113 L 18 98.42 Z" fill="rgb(255, 255, 255)" stroke="rgb(0, 0, 0)" stroke-miterlimit="10" pointer-events="all"/><g fill="rgb(0, 0, 0)" font-family="Helvetica" text-anchor="middle" font-size="24px"><text x="92.5" y="123.5">Störung</text></g><path d="M 408 225 L 408 71" fill="none" stroke="rgb(0, 0, 0)" stroke-width="4" stroke-miterlimit="10" stroke-dasharray="4 12" pointer-events="stroke"/><ellipse cx="408" cy="228" rx="3" ry="3" fill="transparent" stroke="rgb(0, 0, 0)" stroke-width="4" pointer-events="all"/><ellipse cx="408" cy="68" rx="3" ry="3" fill="transparent" stroke="rgb(0, 0, 0)" stroke-width="4" pointer-events="all"/><g fill="rgb(0, 0, 0)" font-family="Helvetica" text-anchor="middle" font-size="24px" transform="rotate(-90,424,148)"><rect fill="rgb(255, 255, 255)" stroke="none" x="360" y="134" width="130" height="30" stroke-width="0"/><text x="423.5" y="158.5">5 Sekunden</text></g></g></svg>