<?xml version="1.0" encoding="UTF-8"?>
<!DOCTYPE svg PUBLIC "-//W3C//DTD SVG 1.1//EN" "http://www.w3.org/Graphics/SVG/1.1/DTD/svg11.dtd">
<svg xmlns="http://www.w3.org/2000/svg" xmlns:xlink="http://www.w3.org/1999/xlink" version="1.1" width="378px" height="551px" viewBox="-0.5 -0.5 378 551"><defs/><g><path d="M 8 548 L 8 28" fill="none" stroke="rgb(0, 0, 0)" stroke-width="4" stroke-miterlimit="10" pointer-events="stroke"/><g fill="rgb(0, 0, 0)" font-family="Helvetica" font-size="24px"><rect fill="rgb(255, 255, 255)" stroke="none" x="10" y="-3" width="97" height="30" stroke-width="0"/><text x="9.5" y="22.5">Gateway</text></g><path d="M 368 548 L 368 28" fill="none" stroke="rgb(0, 0, 0)" stroke-width="4" stroke-miterlimit="10" pointer-events="stroke"/><g fill="rgb(0, 0, 0)" font-family="Helvetica" text-anchor="end" font-size="24px"><rect fill="rgb(255, 255, 255)" stroke="none" x="225" y="-3" width="143" height="30" stroke-width="0"/><text x="365.5" y="22.5">Steuereinheit</text></g><path d="M 8 68 L 358.14 145.81" fill="none" stroke="rgb(0, 0, 0)" stroke-width="3" stroke-miterlimit="10" pointer-events="stroke"/><path d="M 364.73 147.27 L 354.96 149.71 L 358.14 145.81 L 356.92 140.93 Z" fill="rgb(0, 0, 0)" stroke="rgb(0, 0, 0)" stroke-width="3" stroke-miterlimit="10" pointer-events="all"/><g fill="rgb(0, 0, 0)" font-family="Helvetica" text-anchor="middle" font-size="24px"><rect fill="rgb(255, 255, 255)" stroke="none" x="86" y="54" width="206" height="30" stroke-width="0"/><text x="187.77" y="78.61">Challenge Request</text></g><path d="M 368 188 L 17.86 265.81" fill="none" stroke="rgb(0, 0, 0)" stroke-width="3" stroke-miterlimit="10" pointer-events="stroke"/><path d="M 11.27 267.27 L 19.08 260.93 L 17.86 265.81 L 21.04 269.71 Z" fill="rgb(0, 0, 0)" stroke="rgb(0, 0, 0)" stroke-width="3" stroke-miterlimit="10" pointer-events="all"/><g fill="rgb(0, 0, 0)" font-family="Helvetica" text-anchor="middle" font-size="24px"><rect fill="rgb(255, 255, 255)" stroke="none" x="133" y="184" width="110" height="30" stroke-width="0"/><text x="187.45" y="208.8">Challenge</text></g><path d="M 8 308 L 358.14 385.81" fill="none" stroke="rgb(0, 0, 0)" stroke-width="3" stroke-miterlimit="10" pointer-events="stroke"/><path d="M 364.73 387.27 L 354.96 389.71 L 358.14 385.81 L 356.92 380.93 Z" fill="rgb(0, 0, 0)" stroke="rgb(0, 0, 0)" stroke-width="3" stroke-miterlimit="10" pointer-events="all"/><g fill="rgb(0, 0, 0)" font-family="Helvetica" text-anchor="middle" font-size="24px"><rect fill="rgb(255, 255, 255)" stroke="none" x="103" y="294" width="171" height="30" stroke-width="0"/><text x="187.77" y="318.61">Befehl mit Auth.</text></g><path d="M 368 428 L 17.86 505.81" fill="none" stroke="rgb(0, 0, 0)" stroke-width="3" stroke-miterlimit="10" pointer-events="stroke"/><path d="M 11.27 507.27 L 19.08 500.93 L 17.86 505.81 L 21.04 509.71 Z" fill="rgb(0, 0, 0)" stroke="rgb(0, 0, 0)" stroke-width="3" stroke-miterlimit="10" pointer-events="all"/><g fill="rgb(0, 0, 0)" font-family="Helvetica" text-anchor="middle" font-size="24px"><rect fill="rgb(255, 255, 255)" stroke="none" x="88" y="414" width="201" height="30" stroke-width="0"/><text x="187.23" y="438.61">Erfolgsbestätigung</text></g></g></svg>